<?xml version="1.0" encoding="utf-8"?>
<!-- Generator: Adobe Illustrator 17.1.0, SVG Export Plug-In . SVG Version: 6.00 Build 0)  -->
<!DOCTYPE svg PUBLIC "-//W3C//DTD SVG 1.1//EN" "http://www.w3.org/Graphics/SVG/1.1/DTD/svg11.dtd">
<svg version="1.1" id="Layer_1" xmlns="http://www.w3.org/2000/svg" xmlns:xlink="http://www.w3.org/1999/xlink" x="0px" y="0px"
	 viewBox="245 -106 310 382" enable-background="new 245 -106 310 382" xml:space="preserve">
<g>
	<g>
		<path d="M339.47,169.764l-4.618,14.261h9.236l-4.503-14.261H339.47z M393.398,171.368c0-3.025-2.395-4.392-5.361-4.392h-8.44
			v9.177h8.896C391.688,176.153,393.398,174.446,393.398,171.368z M442.597,217.634c-6.359,0-8.796,5.617-8.796,11.234
			s2.437,11.234,8.796,11.234c6.358,0,8.796-5.617,8.796-11.234C451.394,223.251,448.956,217.634,442.597,217.634z M385.116,118.44
			c0-3.174-2.509-4.604-5.62-4.604h-8.849v9.626h9.327C383.326,123.462,385.116,121.67,385.116,118.44z M344.634,84.065
			c7.491,0,10.363-6.621,10.363-13.24s-2.872-13.24-10.363-13.24c-7.497,0-10.366,6.621-10.366,13.24S337.137,84.065,344.634,84.065
			z M292.531,70.576c0-8.118-4.372-12.055-12.304-12.055h-5.494v24.607h5.494C289.036,82.942,292.531,79.505,292.531,70.576z
			 M483.406,217.847h-7.843v8.531h8.266c2.968,0,4.557-1.591,4.557-4.451C488.387,219.119,486.16,217.847,483.406,217.847z
			 M526.841,62.642c0-3.31-2.627-4.804-5.87-4.804h-9.246V67.89h9.743C524.964,67.89,526.841,66.013,526.841,62.642z M400-106
			L245,42v234h310V42L400-106z M491.584,121.308v8.609h-20.925v8.133h23.499v9.566h-34.621v-42.692h34.021v8.911h-22.899v7.472
			h20.925V121.308z M445.453,48.533h35.535v9.304h-23.923v7.801h21.859v8.997h-21.859v8.494h24.545v9.988h-36.157V48.533z
			 M438.093,158.479h13.17L436.211,174.5l16.932,24.688h-13.171l-10.947-17.102l-4.337,4.562v12.54h-10.604v-40.709h10.604v15.623
			L438.093,158.479z M443.287,121.308v8.609h-20.931v8.133h23.497v9.566h-34.618v-42.692h34.02v8.911h-22.899v7.472h20.931V121.308z
			 M397.229,48.534l8.744,33.158h0.125l8.743-33.158h12.114l-14.426,44.583h-13.362l-14.05-44.583H397.229z M396.238,116.946
			c0,4.6-2.211,8.965-6.696,10.698v0.12c4.547,1.082,5.858,6.159,6.218,10.231c0.119,1.788,0.298,8.07,1.793,9.622h-11
			c-0.956-1.435-1.136-5.62-1.255-6.813c-0.298-4.309-1.019-8.727-6.221-8.727h-8.43v15.541h-11.123v-42.693h21.764
			C388.826,104.925,396.238,108.335,396.238,116.946z M344.634,47.597c14.049,0,21.981,10.3,21.981,23.228
			c0,12.927-7.932,23.235-21.981,23.235c-14.053,0-21.987-10.307-21.987-23.235C322.647,57.898,330.581,47.597,344.634,47.597z
			 M309.248,104.925h36.592v9.566h-12.732v33.125h-11.125v-33.125h-12.735V104.925z M300.021,168.284l-8.55,30.903h-8.1
			l-8.552-30.903h-0.113v30.903h-9.981v-40.709h15.625l7.011,27.142h0.115l7.015-27.142h15.622v40.709h-9.979v-30.903H300.021z
			 M263.117,48.533h19.174c13.676,0,21.855,8.302,21.855,22.108c0,14.609-8.306,22.476-21.855,22.476h-19.174V48.533z
			 M258.434,133.267h11.123c0.238,5.025,3.344,6.644,8.072,6.644c3.348,0,6.815-1.201,6.815-4.372c0-3.767-6.098-4.484-12.258-6.218
			c-6.097-1.732-12.495-4.484-12.495-12.317c0-9.329,9.386-12.975,17.399-12.975c8.491,0,17.041,4.126,17.099,13.753H283.07
			c0.175-3.881-3.467-5.141-6.878-5.141c-2.391,0-5.38,0.837-5.38,3.653c0,3.282,6.159,3.878,12.377,5.613
			c6.157,1.734,12.376,4.608,12.376,12.321c0,10.819-9.209,14.284-18.595,14.284C267.166,148.51,258.493,144.211,258.434,133.267z
			 M296.111,247.786h-10.12l-13.141-23.58h-0.107v23.58h-9.273v-37.835h10.121l13.141,23.315h0.106v-23.315h9.273
			C296.111,209.951,296.111,247.786,296.111,247.786z M330.547,247.786h-30.68v-37.835h30.151v7.896h-20.295v6.623h18.546v7.63
			h-18.546v7.208h20.825v8.478H330.547z M329.832,199.188h-10.893l15.227-40.709h10.775l15.224,40.709h-11.062l-2.508-7.297h-14.197
			L329.832,199.188z M373.709,247.785h-9.856l-5.193-26.072h-0.106l-5.193,26.072h-10.015L333.12,209.95h9.855l5.353,27.66h0.106
			l5.564-27.66h9.274l5.564,27.66h0.106l5.352-27.66h9.856L373.709,247.785z M379.596,184.364v14.824h-10.605v-40.709h20.755
			c7.186,0,14.258,3.255,14.258,11.458c0,4.395-2.111,8.56-6.39,10.216v0.104c4.335,1.032,5.59,5.879,5.933,9.756
			c0.112,1.706,0.287,7.696,1.711,9.175h-10.492c-0.911-1.365-1.083-5.357-1.198-6.5c-0.288-4.106-0.97-8.324-5.931-8.324H379.596z
			 M413.187,247.785h-9.856V233.69l-13.785-23.739h11.19l7.524,15.366l7.524-15.366h11.18l-13.778,23.739v14.095H413.187z
			 M442.597,248.581c-11.923,0-18.652-8.744-18.652-19.713c0-10.97,6.729-19.711,18.652-19.711s18.652,8.741,18.652,19.711
			C461.249,239.837,454.52,248.581,442.597,248.581z M461.968,158.479h32.443v8.497h-21.84v7.126h19.957v8.207h-19.957v7.756h22.406
			v9.123h-33.01L461.968,158.479L461.968,158.479z M489.659,247.786c-0.848-1.272-1.006-4.981-1.113-6.041
			c-0.265-3.814-0.901-7.736-5.51-7.736h-7.472v13.778h-9.856v-37.835h19.287c6.677,0,13.248,3.021,13.248,10.651
			c0,4.08-1.96,7.948-5.935,9.485v0.106c4.028,0.955,5.192,5.459,5.511,9.061c0.106,1.59,0.266,7.155,1.591,8.533h-9.751V247.786z
			 M500.111,48.534h22.733c7.868,0,15.61,3.555,15.61,12.552c0,4.805-2.306,9.365-6.991,11.176v0.126
			c4.742,1.124,6.114,6.429,6.491,10.679c0.127,1.873,0.318,8.432,1.871,10.05h-11.486c-1.003-1.496-1.188-5.868-1.314-7.115
			c-0.312-4.497-1.062-9.12-6.493-9.12h-8.807v16.234h-11.614C500.111,93.116,500.111,48.534,500.111,48.534z M503.805,158.479
			h34.897v9.12h-12.147v31.589h-10.603v-31.589h-12.148v-9.12H503.805z M528.074,247.786l-10.175-15.897l-4.027,4.239v11.659h-9.856
			v-37.835h9.856v14.519l12.453-14.519h12.24l-13.989,14.89l15.737,22.945h-12.239V247.786z M544.434,114.491h-12.737v33.125
			h-11.124v-33.125h-12.732v-9.566h36.592L544.434,114.491L544.434,114.491z" style="fill: black;"/>
	</g>
</g>
</svg>
